<?xml version="1.0" encoding="utf-8"?>
<!-- Generator: Adobe Illustrator 17.0.0, SVG Export Plug-In . SVG Version: 6.00 Build 0)  -->
<!DOCTYPE svg PUBLIC "-//W3C//DTD SVG 1.1//EN" "http://www.w3.org/Graphics/SVG/1.1/DTD/svg11.dtd">
<svg version="1.1" id="Layer_1" xmlns="http://www.w3.org/2000/svg" xmlns:xlink="http://www.w3.org/1999/xlink" x="0px" y="0px"
	 width="448px" height="397px" viewBox="85.5 199.5 448 397" enable-background="new 85.5 199.5 448 397" xml:space="preserve">
<title></title>
<g>
	<path fill="#E4E7EF" d="M498.644,284.425c0,29.575-23.975,53.55-53.55,53.55c-29.575,0-53.55-23.975-53.55-53.55
		s23.975-53.55,53.55-53.55l0,0C474.669,230.875,498.644,254.85,498.644,284.425z M531.156,439.337
		c0-47.531-38.531-86.063-86.063-86.063l0,0c-47.531,0-86.063,38.531-86.063,86.063v97.538h172.125L531.156,439.337L531.156,439.337
		z"/>
	<path fill="#E4E7EF" d="M240.456,284.425c0,29.575-23.975,53.55-53.55,53.55s-53.55-23.975-53.55-53.55s23.975-53.55,53.55-53.55
		S240.456,254.85,240.456,284.425L240.456,284.425z M272.969,439.337c0-47.531-38.531-86.063-86.063-86.063l0,0
		c-47.531,0-86.063,38.531-86.063,86.063v97.538h172.125v-97.538H272.969z"/>
	<path fill="#E4E7EF" d="M432.471,463.435c0.004-34.825-16.873-67.492-45.278-87.64c-17.937,16.255-28.167,39.336-28.162,63.543
		v97.538h73.44V463.435z"/>
	<path fill="#E4E7EF" d="M199.529,463.435c-0.004-34.825,16.873-67.492,45.278-87.64c17.937,16.255,28.167,39.336,28.162,63.543
		v97.538h-73.44L199.529,463.435L199.529,463.435z"/>
	<path fill="#E4E7EF" d="M382.938,278.688c0,36.969-29.969,66.938-66.938,66.938s-66.938-29.969-66.938-66.938
		S279.031,211.75,316,211.75S382.938,241.719,382.938,278.688z M423.578,472.328c0-59.414-48.164-107.578-107.578-107.578l0,0
		c-59.414,0-107.578,48.164-107.578,107.578V594.25h215.156V472.328z"/>
	<g>
		<circle display="none" fill="none" stroke="#679EC7" stroke-width="5" stroke-miterlimit="10" cx="306" cy="271.688" r="66.938"/>
		<path fill="none" stroke="#679EC7" stroke-width="5" stroke-miterlimit="10" d="M306,357.75
			c-59.414,0-107.578,48.164-107.578,107.578V587.25h215.156V465.328C413.578,405.914,365.414,357.75,306,357.75z"/>
	</g>
	<g>
		<circle fill="none" stroke="#679EC7" stroke-width="5" stroke-miterlimit="10" cx="176.906" cy="277.425" r="53.55"/>
		<circle fill="none" stroke="#679EC7" stroke-width="5" stroke-miterlimit="10" cx="435.094" cy="277.425" r="53.55"/>
		<path fill="none" stroke="#679EC7" stroke-width="5" stroke-miterlimit="10" d="M435.094,346.275
			c-26.824,0-50.777,12.275-66.561,31.51c-17.623-12.61-39.21-20.035-62.533-20.035s-44.91,7.425-62.533,20.035
			c-15.784-19.235-39.737-31.51-66.561-31.51c-47.531,0-86.063,38.532-86.063,86.063v97.538h107.578v57.375h215.156v-57.375h107.578
			v-97.538C521.156,384.807,482.625,346.275,435.094,346.275z"/>
		<circle fill="none" stroke="#679EC7" stroke-width="5" stroke-miterlimit="10" cx="306" cy="271.688" r="66.938"/>
	</g>
</g>
</svg>
