<?xml version="1.0" encoding="utf-8"?>
<!-- Generator: Adobe Illustrator 17.0.0, SVG Export Plug-In . SVG Version: 6.00 Build 0)  -->
<!DOCTYPE svg PUBLIC "-//W3C//DTD SVG 1.1//EN" "http://www.w3.org/Graphics/SVG/1.1/DTD/svg11.dtd">
<svg version="1.1" id="Layer_1" xmlns="http://www.w3.org/2000/svg" xmlns:xlink="http://www.w3.org/1999/xlink" x="0px" y="0px"
	 width="448px" height="377px" viewBox="85.5 175.5 448 377" enable-background="new 85.5 175.5 448 377" xml:space="preserve">
<rect x="101.844" y="192.844" fill="#E4E7EF" width="430.313" height="358.313"/>
<rect x="101.844" y="192.844" fill="#E4E7EF" width="430.313" height="95.625"/>
<polygon fill="#FFFFFF" points="102.844,180.469 533.156,201.984 533.156,180.469 "/>
<circle fill="#FFFFFF" cx="134.46" cy="235.656" r="14.344"/>
<circle fill="#FFFFFF" cx="177.491" cy="235.656" r="14.344"/>
<circle fill="#FFFFFF" cx="220.523" cy="235.656" r="14.344"/>
<polygon fill="#FFFFFF" points="162.844,276.469 533.156,294.984 533.156,276.469 "/>
<rect x="213.375" y="384.375" fill="#FFFFFF" width="43.031" height="114.75"/>
<rect x="265.969" y="327" fill="#FFFFFF" width="43.031" height="172.125"/>
<rect x="318.563" y="403.5" fill="#FFFFFF" width="43.031" height="95.625"/>
<rect x="371.156" y="355.688" fill="#FFFFFF" width="43.031" height="143.438"/>
<title></title>
<rect x="90.844" y="180.844" fill="none" stroke="#679EC7" stroke-width="5" stroke-miterlimit="10" width="430.313" height="358.313"/>
<rect x="90.844" y="180.844" fill="none" stroke="#679EC7" stroke-width="5" stroke-miterlimit="10" width="430.313" height="95.625"/>
<circle fill="none" stroke="#679EC7" stroke-width="4" stroke-miterlimit="10" cx="125.46" cy="228.656" r="14.344"/>
<circle fill="none" stroke="#679EC7" stroke-width="4" stroke-miterlimit="10" cx="168.491" cy="228.656" r="14.344"/>
<circle fill="none" stroke="#679EC7" stroke-width="4" stroke-miterlimit="10" cx="211.523" cy="228.656" r="14.344"/>
<rect x="203.375" y="375.375" fill="none" stroke="#679EC7" stroke-width="5" stroke-miterlimit="10" width="43.031" height="114.75"/>
<rect x="255.969" y="318" fill="none" stroke="#679EC7" stroke-width="5" stroke-miterlimit="10" width="43.031" height="172.125"/>
<rect x="308.563" y="394.5" fill="none" stroke="#679EC7" stroke-width="5" stroke-miterlimit="10" width="43.031" height="95.625"/>
<rect x="361.156" y="346.688" fill="none" stroke="#679EC7" stroke-width="5" stroke-miterlimit="10" width="43.031" height="143.438"/>
</svg>
