<?xml version="1.0" encoding="utf-8"?>
<!-- Generator: Adobe Illustrator 17.0.0, SVG Export Plug-In . SVG Version: 6.00 Build 0)  -->
<!DOCTYPE svg PUBLIC "-//W3C//DTD SVG 1.1//EN" "http://www.w3.org/Graphics/SVG/1.1/DTD/svg11.dtd">
<svg version="1.1" id="Layer_1" xmlns="http://www.w3.org/2000/svg" xmlns:xlink="http://www.w3.org/1999/xlink" x="0px" y="0px"
	 width="478px" height="305px" viewBox="67.5 247.5 478 305" enable-background="new 67.5 247.5 478 305" xml:space="preserve">
<title></title>
<g id="_19_Business_Solution_1_">
	<path fill="#E4E7EF" d="M484.125,347.625c-10.079,0.002-19.977,2.675-28.688,7.746v-93.808h-93.808
		c15.9,27.41,6.569,62.519-20.84,78.419c-27.41,15.9-62.519,6.569-78.419-20.84c-10.327-17.803-10.327-39.775,0-57.578h-93.808
		v93.808c-27.41-15.9-62.519-6.569-78.419,20.84s-6.569,62.519,20.84,78.419c17.803,10.328,39.775,10.328,57.578,0v93.808h93.808
		c-15.9-27.41-6.569-62.519,20.84-78.419c27.41-15.9,62.519-6.569,78.419,20.84c10.328,17.803,10.328,39.775,0,57.578h93.808V454.63
		c27.41,15.9,62.519,6.569,78.419-20.84c15.9-27.41,6.569-62.519-20.84-78.418C504.24,350.28,494.271,347.607,484.125,347.625z"/>
</g>
<path fill="none" stroke="#679EC7" stroke-width="5" stroke-miterlimit="10" d="M474.125,338.625
	c-10.079,0.002-19.977,2.675-28.688,7.746v-93.808h-93.808c15.9,27.41,6.569,62.519-20.84,78.419
	c-27.41,15.9-62.519,6.569-78.419-20.84c-10.327-17.803-10.327-39.775,0-57.578h-93.808v93.808
	c-27.41-15.9-62.519-6.569-78.419,20.84s-6.569,62.519,20.84,78.419c17.803,10.328,39.775,10.328,57.578,0v93.808h93.808
	c-15.9-27.41-6.569-62.519,20.84-78.419c27.41-15.9,62.519-6.569,78.419,20.84c10.328,17.803,10.328,39.775,0,57.578h93.808V445.63
	c27.41,15.9,62.519,6.569,78.419-20.84c15.9-27.41,6.569-62.519-20.84-78.418C494.24,341.28,484.271,338.607,474.125,338.625z"/>
</svg>
